<svg xmlns="http://www.w3.org/2000/svg" xmlns:xlink="http://www.w3.org/1999/xlink" width="24px"
  height="24px" viewBox="0 0 24 24" version="1.1">
  <defs>
    <filter id="alpha" filterUnits="objectBoundingBox" x="0%" y="0%" width="100%" height="100%">
      <feColorMatrix type="matrix" in="SourceGraphic"
        values="0 0 0 0 1 0 0 0 0 1 0 0 0 0 1 0 0 0 1 0" />
    </filter>
    <mask id="mask0">
      <g filter="url(#alpha)">
        <rect x="0" y="0" width="24" height="24"
          style="fill:rgb(0%,0%,0%);fill-opacity:0.913725;stroke:none;" />
      </g>
    </mask>
    <clipPath id="clip1">
      <rect x="0" y="0" width="24" height="24" />
    </clipPath>
    <g id="surface5" clip-path="url(#clip1)">
      <path
        style=" stroke:none;fill-rule:evenodd;fill:rgb(34.901961%,80.392157%,58.039216%);fill-opacity:1;"
        d="M 10.835938 -0.117188 C 11.535156 -0.117188 12.234375 -0.117188 12.933594 -0.117188 C 13.394531 0.667969 13.511719 1.519531 13.28125 2.445312 C 13.089844 2.753906 12.820312 2.910156 12.464844 2.914062 C 12.078125 2.914062 11.6875 2.914062 11.300781 2.914062 C 10.949219 2.910156 10.675781 2.753906 10.484375 2.445312 C 10.253906 1.519531 10.371094 0.667969 10.835938 -0.117188 Z M 10.835938 -0.117188 " />
    </g>
    <mask id="mask1">
      <g filter="url(#alpha)">
        <rect x="0" y="0" width="24" height="24"
          style="fill:rgb(0%,0%,0%);fill-opacity:0.941176;stroke:none;" />
      </g>
    </mask>
    <clipPath id="clip2">
      <rect x="0" y="0" width="24" height="24" />
    </clipPath>
    <g id="surface8" clip-path="url(#clip2)">
      <path
        style=" stroke:none;fill-rule:evenodd;fill:rgb(99.607843%,80.784314%,33.333333%);fill-opacity:1;"
        d="M 5.007812 4.3125 C 4.699219 4.464844 4.464844 4.699219 4.3125 5.007812 C 1.746094 5.511719 0.851562 4.5 1.632812 1.980469 C 2.515625 1.210938 3.484375 1.09375 4.542969 1.632812 C 5.25 2.429688 5.40625 3.320312 5.007812 4.3125 Z M 5.007812 4.3125 " />
    </g>
    <mask id="mask2">
      <g filter="url(#alpha)">
        <rect x="0" y="0" width="24" height="24"
          style="fill:rgb(0%,0%,0%);fill-opacity:0.952941;stroke:none;" />
      </g>
    </mask>
    <clipPath id="clip3">
      <rect x="0" y="0" width="24" height="24" />
    </clipPath>
    <g id="surface11" clip-path="url(#clip3)">
      <path
        style=" stroke:none;fill-rule:evenodd;fill:rgb(99.607843%,80.392157%,33.333333%);fill-opacity:1;"
        d="M 19.457031 5.007812 C 19.300781 4.699219 19.066406 4.464844 18.757812 4.3125 C 18.257812 1.746094 19.265625 0.851562 21.785156 1.632812 C 22.554688 2.515625 22.671875 3.484375 22.136719 4.542969 C 21.339844 5.25 20.445312 5.40625 19.457031 5.007812 Z M 19.457031 5.007812 " />
    </g>
    <mask id="mask3">
      <g filter="url(#alpha)">
        <rect x="0" y="0" width="24" height="24"
          style="fill:rgb(0%,0%,0%);fill-opacity:0.972549;stroke:none;" />
      </g>
    </mask>
    <clipPath id="clip4">
      <rect x="0" y="0" width="24" height="24" />
    </clipPath>
    <g id="surface14" clip-path="url(#clip4)">
      <path
        style=" stroke:none;fill-rule:evenodd;fill:rgb(40.392157%,37.254902%,41.176471%);fill-opacity:1;"
        d="M 11.300781 2.914062 C 11.6875 2.914062 12.078125 2.914062 12.464844 2.914062 C 12.464844 3.457031 12.464844 4 12.464844 4.542969 C 12.078125 4.855469 11.6875 4.855469 11.300781 4.542969 C 11.300781 4 11.300781 3.457031 11.300781 2.914062 Z M 11.300781 2.914062 " />
    </g>
    <mask id="mask4">
      <g filter="url(#alpha)">
        <rect x="0" y="0" width="24" height="24"
          style="fill:rgb(0%,0%,0%);fill-opacity:0.847059;stroke:none;" />
      </g>
    </mask>
    <clipPath id="clip5">
      <rect x="0" y="0" width="24" height="24" />
    </clipPath>
    <g id="surface17" clip-path="url(#clip5)">
      <path
        style=" stroke:none;fill-rule:evenodd;fill:rgb(40.784314%,36.862745%,40.392157%);fill-opacity:1;"
        d="M 5.007812 4.3125 C 5.707031 4.933594 6.40625 5.554688 7.105469 6.175781 C 7.027344 6.71875 6.71875 7.027344 6.175781 7.105469 C 5.554688 6.40625 4.933594 5.707031 4.3125 5.007812 C 4.464844 4.699219 4.699219 4.464844 5.007812 4.3125 Z M 5.007812 4.3125 " />
    </g>
    <mask id="mask5">
      <g filter="url(#alpha)">
        <rect x="0" y="0" width="24" height="24"
          style="fill:rgb(0%,0%,0%);fill-opacity:0.854902;stroke:none;" />
      </g>
    </mask>
    <clipPath id="clip6">
      <rect x="0" y="0" width="24" height="24" />
    </clipPath>
    <g id="surface20" clip-path="url(#clip6)">
      <path
        style=" stroke:none;fill-rule:evenodd;fill:rgb(40.784314%,37.254902%,40.392157%);fill-opacity:1;"
        d="M 18.757812 4.3125 C 19.066406 4.464844 19.300781 4.699219 19.457031 5.007812 C 18.835938 5.707031 18.214844 6.40625 17.59375 7.105469 C 17.046875 7.027344 16.738281 6.71875 16.660156 6.175781 C 17.359375 5.554688 18.058594 4.933594 18.757812 4.3125 Z M 18.757812 4.3125 " />
    </g>
    <mask id="mask6">
      <g filter="url(#alpha)">
        <rect x="0" y="0" width="24" height="24"
          style="fill:rgb(0%,0%,0%);fill-opacity:0.996078;stroke:none;" />
      </g>
    </mask>
    <clipPath id="clip7">
      <rect x="0" y="0" width="24" height="24" />
    </clipPath>
    <g id="surface23" clip-path="url(#clip7)">
      <path
        style=" stroke:none;fill-rule:evenodd;fill:rgb(16.078431%,65.098039%,99.215686%);fill-opacity:1;"
        d="M 11.300781 4.542969 C 11.6875 4.855469 12.078125 4.855469 12.464844 4.542969 C 13.984375 4.816406 15.382812 5.359375 16.660156 6.175781 C 16.738281 6.71875 17.046875 7.027344 17.59375 7.105469 C 17.59375 7.183594 17.59375 7.261719 17.59375 7.339844 C 17.464844 7.355469 17.386719 7.429688 17.359375 7.574219 C 19.023438 11.175781 18.402344 14.324219 15.496094 17.007812 C 12.898438 18.5625 10.257812 18.679688 7.574219 17.359375 C 7.429688 17.386719 7.355469 17.464844 7.339844 17.59375 C 7.261719 17.59375 7.183594 17.59375 7.105469 17.59375 C 7.027344 17.046875 6.71875 16.738281 6.175781 16.660156 C 5.378906 15.375 4.835938 13.976562 4.542969 12.464844 C 4.855469 12.078125 4.855469 11.6875 4.542969 11.300781 C 4.835938 9.789062 5.378906 8.390625 6.175781 7.105469 C 6.71875 7.027344 7.027344 6.71875 7.105469 6.175781 C 8.382812 5.359375 9.78125 4.816406 11.300781 4.542969 Z M 11.300781 4.542969 " />
    </g>
    <mask id="mask7">
      <g filter="url(#alpha)">
        <rect x="0" y="0" width="24" height="24"
          style="fill:rgb(0%,0%,0%);fill-opacity:0.905882;stroke:none;" />
      </g>
    </mask>
    <clipPath id="clip8">
      <rect x="0" y="0" width="24" height="24" />
    </clipPath>
    <g id="surface26" clip-path="url(#clip8)">
      <path
        style=" stroke:none;fill-rule:evenodd;fill:rgb(4.705882%,58.823529%,98.823529%);fill-opacity:1;"
        d="M 17.59375 7.339844 C 18.453125 8.515625 18.996094 9.835938 19.222656 11.300781 C 18.914062 11.6875 18.914062 12.078125 19.222656 12.464844 C 18.933594 13.976562 18.390625 15.375 17.59375 16.660156 C 17.046875 16.738281 16.738281 17.046875 16.660156 17.59375 C 15.417969 18.5 14.019531 19.042969 12.464844 19.222656 C 12.078125 18.914062 11.6875 18.914062 11.300781 19.222656 C 9.800781 19.085938 8.480469 18.542969 7.339844 17.59375 C 7.355469 17.464844 7.429688 17.386719 7.574219 17.359375 C 10.257812 18.679688 12.898438 18.5625 15.496094 17.007812 C 18.402344 14.324219 19.023438 11.175781 17.359375 7.574219 C 17.386719 7.429688 17.464844 7.355469 17.59375 7.339844 Z M 17.59375 7.339844 " />
    </g>
    <mask id="mask8">
      <g filter="url(#alpha)">
        <rect x="0" y="0" width="24" height="24"
          style="fill:rgb(0%,0%,0%);fill-opacity:0.87451;stroke:none;" />
      </g>
    </mask>
    <clipPath id="clip9">
      <rect x="0" y="0" width="24" height="24" />
    </clipPath>
    <g id="surface29" clip-path="url(#clip9)">
      <path
        style=" stroke:none;fill-rule:evenodd;fill:rgb(34.509804%,81.568627%,58.431373%);fill-opacity:1;"
        d="M 23.882812 10.835938 C 23.882812 11.535156 23.882812 12.234375 23.882812 12.933594 C 23.101562 13.394531 22.246094 13.511719 21.320312 13.28125 C 21.011719 13.089844 20.855469 12.820312 20.855469 12.464844 C 20.855469 12.078125 20.855469 11.6875 20.855469 11.300781 C 20.855469 10.949219 21.011719 10.675781 21.320312 10.484375 C 22.246094 10.253906 23.101562 10.371094 23.882812 10.835938 Z M 23.882812 10.835938 " />
    </g>
    <mask id="mask9">
      <g filter="url(#alpha)">
        <rect x="0" y="0" width="24" height="24"
          style="fill:rgb(0%,0%,0%);fill-opacity:0.972549;stroke:none;" />
      </g>
    </mask>
    <clipPath id="clip10">
      <rect x="0" y="0" width="24" height="24" />
    </clipPath>
    <g id="surface32" clip-path="url(#clip10)">
      <path
        style=" stroke:none;fill-rule:evenodd;fill:rgb(40.784314%,36.862745%,41.568627%);fill-opacity:1;"
        d="M 2.914062 11.300781 C 3.457031 11.300781 4 11.300781 4.542969 11.300781 C 4.855469 11.6875 4.855469 12.078125 4.542969 12.464844 C 4 12.464844 3.457031 12.464844 2.914062 12.464844 C 2.914062 12.078125 2.914062 11.6875 2.914062 11.300781 Z M 2.914062 11.300781 " />
    </g>
    <mask id="mask10">
      <g filter="url(#alpha)">
        <rect x="0" y="0" width="24" height="24"
          style="fill:rgb(0%,0%,0%);fill-opacity:0.972549;stroke:none;" />
      </g>
    </mask>
    <clipPath id="clip11">
      <rect x="0" y="0" width="24" height="24" />
    </clipPath>
    <g id="surface35" clip-path="url(#clip11)">
      <path
        style=" stroke:none;fill-rule:evenodd;fill:rgb(40.784314%,36.470588%,41.176471%);fill-opacity:1;"
        d="M 19.222656 11.300781 C 19.765625 11.300781 20.3125 11.300781 20.855469 11.300781 C 20.855469 11.6875 20.855469 12.078125 20.855469 12.464844 C 20.3125 12.464844 19.765625 12.464844 19.222656 12.464844 C 18.914062 12.078125 18.914062 11.6875 19.222656 11.300781 Z M 19.222656 11.300781 " />
    </g>
    <mask id="mask11">
      <g filter="url(#alpha)">
        <rect x="0" y="0" width="24" height="24"
          style="fill:rgb(0%,0%,0%);fill-opacity:0.917647;stroke:none;" />
      </g>
    </mask>
    <clipPath id="clip12">
      <rect x="0" y="0" width="24" height="24" />
    </clipPath>
    <g id="surface38" clip-path="url(#clip12)">
      <path
        style=" stroke:none;fill-rule:evenodd;fill:rgb(34.509804%,81.568627%,58.823529%);fill-opacity:1;"
        d="M 2.914062 11.300781 C 2.914062 11.6875 2.914062 12.078125 2.914062 12.464844 C 2.910156 12.820312 2.753906 13.089844 2.445312 13.28125 C 1.519531 13.511719 0.667969 13.394531 -0.117188 12.933594 C -0.117188 12.234375 -0.117188 11.535156 -0.117188 10.835938 C 0.667969 10.371094 1.519531 10.253906 2.445312 10.484375 C 2.753906 10.675781 2.910156 10.949219 2.914062 11.300781 Z M 2.914062 11.300781 " />
    </g>
    <mask id="mask12">
      <g filter="url(#alpha)">
        <rect x="0" y="0" width="24" height="24"
          style="fill:rgb(0%,0%,0%);fill-opacity:0.937255;stroke:none;" />
      </g>
    </mask>
    <clipPath id="clip13">
      <rect x="0" y="0" width="24" height="24" />
    </clipPath>
    <g id="surface41" clip-path="url(#clip13)">
      <path
        style=" stroke:none;fill-rule:evenodd;fill:rgb(99.607843%,80.392157%,33.333333%);fill-opacity:1;"
        d="M 4.3125 18.757812 C 4.464844 19.066406 4.699219 19.300781 5.007812 19.457031 C 5.511719 22.023438 4.5 22.914062 1.980469 22.136719 C 1.210938 21.25 1.09375 20.28125 1.632812 19.222656 C 2.429688 18.515625 3.320312 18.359375 4.3125 18.757812 Z M 4.3125 18.757812 " />
    </g>
    <mask id="mask13">
      <g filter="url(#alpha)">
        <rect x="0" y="0" width="24" height="24"
          style="fill:rgb(0%,0%,0%);fill-opacity:0.941176;stroke:none;" />
      </g>
    </mask>
    <clipPath id="clip14">
      <rect x="0" y="0" width="24" height="24" />
    </clipPath>
    <g id="surface44" clip-path="url(#clip14)">
      <path
        style=" stroke:none;fill-rule:evenodd;fill:rgb(99.607843%,80.392157%,33.333333%);fill-opacity:1;"
        d="M 18.757812 19.457031 C 19.066406 19.300781 19.300781 19.066406 19.457031 18.757812 C 22.023438 18.257812 22.914062 19.265625 22.136719 21.785156 C 21.25 22.554688 20.28125 22.671875 19.222656 22.136719 C 18.515625 21.339844 18.359375 20.445312 18.757812 19.457031 Z M 18.757812 19.457031 " />
    </g>
    <mask id="mask14">
      <g filter="url(#alpha)">
        <rect x="0" y="0" width="24" height="24"
          style="fill:rgb(0%,0%,0%);fill-opacity:0.972549;stroke:none;" />
      </g>
    </mask>
    <clipPath id="clip15">
      <rect x="0" y="0" width="24" height="24" />
    </clipPath>
    <g id="surface47" clip-path="url(#clip15)">
      <path
        style=" stroke:none;fill-rule:evenodd;fill:rgb(40.392157%,36.862745%,41.176471%);fill-opacity:1;"
        d="M 12.464844 19.222656 C 12.464844 19.765625 12.464844 20.3125 12.464844 20.855469 C 12.078125 20.855469 11.6875 20.855469 11.300781 20.855469 C 11.300781 20.3125 11.300781 19.765625 11.300781 19.222656 C 11.6875 18.914062 12.078125 18.914062 12.464844 19.222656 Z M 12.464844 19.222656 " />
    </g>
    <mask id="mask15">
      <g filter="url(#alpha)">
        <rect x="0" y="0" width="24" height="24"
          style="fill:rgb(0%,0%,0%);fill-opacity:0.913725;stroke:none;" />
      </g>
    </mask>
    <clipPath id="clip16">
      <rect x="0" y="0" width="24" height="24" />
    </clipPath>
    <g id="surface50" clip-path="url(#clip16)">
      <path
        style=" stroke:none;fill-rule:evenodd;fill:rgb(29.019608%,80.392157%,55.686275%);fill-opacity:1;"
        d="M 12.699219 20.855469 C 13.273438 21.175781 13.503906 21.679688 13.398438 22.367188 C 13.4375 22.953125 13.28125 23.457031 12.933594 23.882812 C 12.234375 23.882812 11.535156 23.882812 10.835938 23.882812 C 10.679688 23.652344 10.523438 23.417969 10.367188 23.183594 C 12.234375 23.496094 13.007812 22.71875 12.699219 20.855469 Z M 12.699219 20.855469 " />
    </g>
  </defs>
  <g id="surface1">
    <use xlink:href="#surface5" mask="url(#mask0)" />
    <use xlink:href="#surface8" mask="url(#mask1)" />
    <use xlink:href="#surface11" mask="url(#mask2)" />
    <use xlink:href="#surface14" mask="url(#mask3)" />
    <use xlink:href="#surface17" mask="url(#mask4)" />
    <use xlink:href="#surface20" mask="url(#mask5)" />
    <use xlink:href="#surface23" mask="url(#mask6)" />
    <path
      style=" stroke:none;fill-rule:evenodd;fill:rgb(90.980392%,96.078431%,100%);fill-opacity:1;"
      d="M 7.339844 9.902344 C 7.964844 9.863281 8.585938 9.902344 9.203125 10.019531 C 9.546875 10.183594 9.703125 10.457031 9.667969 10.835938 C 7.355469 10.160156 6.65625 10.894531 7.574219 13.046875 C 8.265625 13.257812 8.886719 13.140625 9.4375 12.699219 C 9.730469 13.109375 9.652344 13.457031 9.203125 13.746094 C 7.542969 14.183594 6.535156 13.5625 6.175781 11.882812 C 6.324219 11.078125 6.710938 10.417969 7.339844 9.902344 Z M 7.339844 9.902344 " />
    <path
      style=" stroke:none;fill-rule:evenodd;fill:rgb(89.803922%,95.294118%,100%);fill-opacity:1;"
      d="M 14.332031 9.902344 C 14.574219 9.867188 14.808594 9.90625 15.027344 10.019531 C 15.535156 10.679688 16.039062 11.339844 16.542969 12 C 16.660156 11.304688 16.699219 10.605469 16.660156 9.902344 C 16.972656 9.902344 17.28125 9.902344 17.59375 9.902344 C 17.632812 11.148438 17.59375 12.390625 17.476562 13.632812 C 17.308594 13.851562 17.113281 13.890625 16.894531 13.746094 C 16.3125 13.007812 15.726562 12.273438 15.144531 11.535156 C 15.03125 12.308594 14.992188 13.082031 15.027344 13.863281 C 14.796875 13.863281 14.5625 13.863281 14.332031 13.863281 C 14.332031 12.542969 14.332031 11.222656 14.332031 9.902344 Z M 14.332031 9.902344 " />
    <path
      style=" stroke:none;fill-rule:evenodd;fill:rgb(94.117647%,97.254902%,100%);fill-opacity:1;"
      d="M 10.601562 9.902344 C 12.851562 9.550781 13.824219 10.484375 13.515625 12.699219 C 13.332031 13.113281 13.058594 13.464844 12.699219 13.746094 C 12.003906 13.863281 11.304688 13.902344 10.601562 13.863281 C 10.601562 12.542969 10.601562 11.222656 10.601562 9.902344 Z M 10.601562 9.902344 " />
    <use xlink:href="#surface26" mask="url(#mask7)" />
    <path
      style=" stroke:none;fill-rule:evenodd;fill:rgb(23.137255%,67.058824%,99.607843%);fill-opacity:1;"
      d="M 11.300781 10.601562 C 12.949219 10.78125 13.335938 11.597656 12.464844 13.046875 C 12.085938 13.164062 11.695312 13.203125 11.300781 13.164062 C 11.300781 12.3125 11.300781 11.457031 11.300781 10.601562 Z M 11.300781 10.601562 " />
    <use xlink:href="#surface29" mask="url(#mask8)" />
    <use xlink:href="#surface32" mask="url(#mask9)" />
    <use xlink:href="#surface35" mask="url(#mask10)" />
    <use xlink:href="#surface38" mask="url(#mask11)" />
    <path
      style=" stroke:none;fill-rule:evenodd;fill:rgb(41.176471%,36.862745%,40.784314%);fill-opacity:1;"
      d="M 6.175781 16.660156 C 6.71875 16.738281 7.027344 17.046875 7.105469 17.59375 C 6.40625 18.214844 5.707031 18.835938 5.007812 19.457031 C 4.699219 19.300781 4.464844 19.066406 4.3125 18.757812 C 4.933594 18.058594 5.554688 17.359375 6.175781 16.660156 Z M 6.175781 16.660156 " />
    <path
      style=" stroke:none;fill-rule:evenodd;fill:rgb(40.784314%,36.862745%,40.392157%);fill-opacity:1;"
      d="M 17.59375 16.660156 C 18.214844 17.359375 18.835938 18.058594 19.457031 18.757812 C 19.300781 19.066406 19.066406 19.300781 18.757812 19.457031 C 18.058594 18.835938 17.359375 18.214844 16.660156 17.59375 C 16.738281 17.046875 17.046875 16.738281 17.59375 16.660156 Z M 17.59375 16.660156 " />
    <use xlink:href="#surface41" mask="url(#mask12)" />
    <use xlink:href="#surface44" mask="url(#mask13)" />
    <use xlink:href="#surface47" mask="url(#mask14)" />
    <path
      style=" stroke:none;fill-rule:evenodd;fill:rgb(42.745098%,82.745098%,62.745098%);fill-opacity:1;"
      d="M 11.300781 20.855469 C 11.6875 20.855469 12.078125 20.855469 12.464844 20.855469 C 12.542969 20.855469 12.621094 20.855469 12.699219 20.855469 C 13.007812 22.71875 12.234375 23.496094 10.367188 23.183594 C 10.332031 22.558594 10.371094 21.9375 10.484375 21.320312 C 10.675781 21.011719 10.949219 20.855469 11.300781 20.855469 Z M 11.300781 20.855469 " />
    <use xlink:href="#surface50" mask="url(#mask15)" />
  </g>
</svg>
    